# xmcd
#
# Track frame offsets:
# 150
# 11395
# 20847
# 40875
# 49810
# 62762
# 72032
# 85432
# 97267
# 108815
# 118832
# 129652
# 144025
# 157455
#
# Disc length: 2226 seconds
#
#
# Revision: 0
# Processed by: cddbd v1.5.2PL0 Copyright (c) Steve Scherf et al.
# Submitted via: FreeRIP 2.96 
#
DISCID=c508b00e
DTITLE=renato - renato e seus blue caps
DYEAR=1900
DGENRE=Blues
TTITLE0=sera mentira ou sera verdade?
TTITLE1=cansei de voce
TTITLE2=darlling
TTITLE3=voce nao sabe amar
TTITLE4=se eu sou feliz, porque estou chorando
TTITLE5=vou fazer voce feliz
TTITLE6=perdi voce
TTITLE7=se tu soubesse
TTITLE8=ana
TTITLE9=nao tenho nada com isso
TTITLE10=amanheci chorando
TTITLE11=lar doce lar
TTITLE12=nao me diga adeus
TTITLE13=vivo so
EXTD=
EXTT0=
EXTT1=
EXTT2=
EXTT3=
EXTT4=
EXTT5=
EXTT6=
EXTT7=
EXTT8=
EXTT9=
EXTT10=
EXTT11=
EXTT12=
EXTT13=
PLAYORDER=
